<?xml version="1.0" encoding="utf-8"?>
<!-- Generator: Adobe Illustrator 21.0.0, SVG Export Plug-In . SVG Version: 6.00 Build 0)  -->
<svg version="1.1" id="Слой_1" xmlns="http://www.w3.org/2000/svg" xmlns:xlink="http://www.w3.org/1999/xlink" x="0px" y="0px"
	 viewBox="0 0 65.3 87.9" style="enable-background:new 0 0 65.3 87.9;" xml:space="preserve">
<path d="M9.5,9.5c-10.9,11-12.7,28.1-4.2,41.1l23.1,35.1c1.5,2.3,4.6,2.9,6.9,1.4c0.6-0.4,1.1-0.9,1.4-1.4l23.1-35.1
	c9.9-15.1,5.7-35.3-9.3-45.2C37.6-3.1,20.5-1.4,9.5,9.5z M54.9,47.3L32.6,81.1L10.4,47.3C2.3,35,5.7,18.5,18,10.4S46.8,5.7,54.9,18
	C60.8,26.9,60.8,38.4,54.9,47.3z"/>
<path d="M32.6,12.7c-10.9,0-19.7,8.8-19.7,19.7s8.8,19.7,19.7,19.7s19.7-8.8,19.7-19.7C52.3,21.5,43.5,12.7,32.6,12.7z M32.6,46.1
	c-7.6,0-13.7-6.1-13.7-13.7c0-7.6,6.1-13.7,13.7-13.7s13.7,6.1,13.7,13.7c0,0,0,0,0,0C46.3,39.9,40.2,46,32.6,46.1z"/>
</svg>
